<svg width="36" height="34" viewBox="0 0 36 34" fill="none" xmlns="http://www.w3.org/2000/svg">
<ellipse cx="18" cy="17" rx="18" ry="17" fill="white"/>
<path d="M35.75 17C35.75 26.2375 27.8167 33.75 18 33.75C8.18329 33.75 0.25 26.2375 0.25 17C0.25 7.7625 8.18329 0.25 18 0.25C27.8167 0.25 35.75 7.7625 35.75 17Z" stroke="black" stroke-opacity="0.5" stroke-width="0.5"/>
<g clip-path="url(#clip0)">
<path d="M28 17.2526C28 16.5049 27.9409 15.7531 27.815 15.0175H17.7106V19.2534H23.4969C23.2568 20.6195 22.4853 21.828 21.3556 22.596V25.3445H24.8077C26.8349 23.4286 28 20.5993 28 17.2526Z" fill="#4285F4"/>
<path d="M17.7106 27.9999C20.5998 27.9999 23.0364 27.0258 24.8116 25.3444L21.3595 22.5959C20.3991 23.2669 19.1591 23.6468 17.7145 23.6468C14.9198 23.6468 12.5501 21.7108 11.6999 19.1078H8.13757V21.9412C9.95613 25.6556 13.6602 27.9999 17.7106 27.9999V27.9999Z" fill="#34A853"/>
<path d="M11.696 19.1079C11.2473 17.7417 11.2473 16.2624 11.696 14.8962V12.0629H8.1376C6.6182 15.1711 6.6182 18.833 8.1376 21.9412L11.696 19.1079V19.1079Z" fill="#FBBC04"/>
<path d="M17.7106 10.353C19.2379 10.3287 20.714 10.9189 21.82 12.0021L24.8785 8.86154C22.9419 6.99419 20.3715 5.96755 17.7106 5.99989C13.6602 5.99989 9.95613 8.34418 8.13757 12.0627L11.696 14.8961C12.5423 12.2891 14.9158 10.353 17.7106 10.353V10.353Z" fill="#EA4335"/>
</g>
<defs>
<clipPath id="clip0">
<rect width="21" height="22" fill="white" transform="translate(7 6)"/>
</clipPath>
</defs>
</svg>
